# xmcd
#
# Track frame offsets:
#	150
#	15710
#	27376
#	44785
#	60175
#	80711
#	96581
#	111995
#	126203
#	138691
#	150027
#	163326
#	176276
#	188485
#
# Disc length: 2671 seconds
#
# Revision: 1
# Processed by: cddbd v1.5.2PL0 Copyright (c) Steve Scherf et al.
# Submitted via: audiograbber 1.83.01
#
DISCID=ba0a6d0e
DTITLE=стг слуямг йаи сто йоядекио [2001] - боутуяас йыстас and ацахымас [тяацоуд
DTITLE=и]
DYEAR=2001
DGENRE=
TTITLE0=лиа слуямиа сто паяахуяи
TTITLE1=ьаяадес
TTITLE2=то йоутсабайи
TTITLE3=то сакбаяи - ацахымас
TTITLE4=лийяг лоу йоядекиытисса
TTITLE5=йоуйка лоу есу
TTITLE6=ламайи лоу - ацахымас
TTITLE7=лпакос ластива
TTITLE8=аяалпас пеяма
TTITLE9=лгко лоу йаи ламтаяими
TTITLE10=апо та покка - ацахымас
TTITLE11=еваса ламтгки
TTITLE12=слуямиа лоу то жайиоки соу
TTITLE13=лпоуямобас
EXTD=
EXTT0=
EXTT1=
EXTT2=
EXTT3=
EXTT4=
EXTT5=
EXTT6=
EXTT7=
EXTT8=
EXTT9=
EXTT10=
EXTT11=
EXTT12=
EXTT13=
PLAYORDER=
